<svg width="114" height="37" viewBox="0 0 114 37" fill="none" xmlns="http://www.w3.org/2000/svg">
<rect x="24" width="1" height="40" transform="rotate(25 24 0)" fill="#1A1A1A"/>
<path d="M16.753 27.7C15.473 27.7 14.319 27.474 13.291 27.022C12.263 26.57 11.419 25.922 10.759 25.078C10.099 24.234 9.681 23.228 9.505 22.06L12.913 21.556C13.153 22.548 13.649 23.312 14.401 23.848C15.153 24.384 16.009 24.652 16.969 24.652C17.505 24.652 18.025 24.568 18.529 24.4C19.033 24.232 19.447 23.984 19.771 23.656C20.095 23.328 20.257 22.924 20.257 22.444C20.257 22.268 20.231 22.098 20.179 21.934C20.127 21.77 20.041 21.616 19.921 21.472C19.801 21.328 19.631 21.192 19.411 21.064C19.191 20.936 18.913 20.82 18.577 20.716L14.089 19.396C13.753 19.3 13.363 19.164 12.919 18.988C12.475 18.812 12.045 18.56 11.629 18.232C11.213 17.904 10.867 17.47 10.591 16.93C10.315 16.39 10.177 15.708 10.177 14.884C10.177 13.724 10.469 12.76 11.053 11.992C11.637 11.224 12.417 10.652 13.393 10.276C14.369 9.9 15.449 9.716 16.633 9.724C17.825 9.74 18.889 9.944 19.825 10.336C20.761 10.728 21.545 11.298 22.177 12.046C22.809 12.794 23.265 13.708 23.545 14.788L20.017 15.388C19.889 14.828 19.653 14.356 19.309 13.972C18.965 13.588 18.555 13.296 18.079 13.096C17.603 12.896 17.105 12.788 16.585 12.772C16.073 12.756 15.591 12.826 15.139 12.982C14.687 13.138 14.319 13.364 14.035 13.66C13.751 13.956 13.609 14.308 13.609 14.716C13.609 15.092 13.725 15.398 13.957 15.634C14.189 15.87 14.481 16.06 14.833 16.204C15.185 16.348 15.545 16.468 15.913 16.564L18.913 17.38C19.361 17.5 19.857 17.658 20.401 17.854C20.945 18.05 21.467 18.322 21.967 18.67C22.467 19.018 22.879 19.476 23.203 20.044C23.527 20.612 23.689 21.332 23.689 22.204C23.689 23.132 23.495 23.942 23.107 24.634C22.719 25.326 22.197 25.898 21.541 26.35C20.885 26.802 20.143 27.14 19.315 27.364C18.487 27.588 17.633 27.7 16.753 27.7Z" fill="#1A1A1A"/>
<path d="M27.124 23.68C27.348 23.672 27.52 23.636 27.64 23.572C27.76 23.5 27.844 23.38 27.892 23.212C27.94 23.036 27.964 22.796 27.964 22.492V17.704C27.964 17.504 27.968 17.312 27.976 17.128C27.992 16.944 28.004 16.8 28.012 16.696C27.876 16.704 27.72 16.712 27.544 16.72C27.368 16.72 27.228 16.724 27.124 16.732V15.94C27.644 15.932 28.168 15.928 28.696 15.928C29.224 15.928 29.752 15.924 30.28 15.916C31.008 15.908 31.636 16 32.164 16.192C32.692 16.376 33.096 16.66 33.376 17.044C33.656 17.42 33.796 17.908 33.796 18.508C33.796 18.828 33.728 19.148 33.592 19.468C33.464 19.78 33.256 20.072 32.968 20.344C32.688 20.608 32.316 20.824 31.852 20.992C31.396 21.16 30.844 21.252 30.196 21.268C30.068 21.268 29.944 21.268 29.824 21.268C29.704 21.268 29.588 21.264 29.476 21.256V22.54C29.476 22.764 29.472 22.968 29.464 23.152C29.456 23.336 29.444 23.48 29.428 23.584C29.532 23.576 29.648 23.572 29.776 23.572C29.904 23.564 30.032 23.56 30.16 23.56C30.296 23.552 30.4 23.548 30.472 23.548V24.34H27.124V23.68ZM29.476 20.5C29.58 20.508 29.68 20.516 29.776 20.524C29.872 20.532 29.976 20.536 30.088 20.536C30.536 20.536 30.912 20.456 31.216 20.296C31.528 20.136 31.764 19.908 31.924 19.612C32.084 19.308 32.164 18.94 32.164 18.508C32.164 18.116 32.108 17.796 31.996 17.548C31.884 17.3 31.736 17.112 31.552 16.984C31.368 16.848 31.164 16.756 30.94 16.708C30.716 16.66 30.492 16.636 30.268 16.636C30.06 16.636 29.896 16.668 29.776 16.732C29.664 16.796 29.584 16.912 29.536 17.08C29.496 17.24 29.476 17.46 29.476 17.74V20.5ZM35.5888 24.34V23.68C35.8128 23.672 35.9848 23.636 36.1048 23.572C36.2248 23.5 36.3088 23.38 36.3568 23.212C36.4048 23.036 36.4288 22.796 36.4288 22.492V17.704C36.4288 17.504 36.4328 17.312 36.4408 17.128C36.4568 16.944 36.4688 16.8 36.4768 16.696C36.3408 16.704 36.1848 16.712 36.0088 16.72C35.8328 16.72 35.6928 16.724 35.5888 16.732V15.94H38.7808V16.6C38.5648 16.608 38.3928 16.648 38.2648 16.72C38.1448 16.784 38.0608 16.9 38.0128 17.068C37.9648 17.236 37.9408 17.476 37.9408 17.788V22.564C37.9408 22.78 37.9368 22.98 37.9288 23.164C37.9208 23.34 37.9088 23.48 37.8928 23.584L39.7168 23.572C40.1968 23.572 40.5688 23.412 40.8328 23.092C41.0968 22.764 41.2288 22.264 41.2288 21.592H41.9008L41.8288 24.34H35.5888ZM46.9176 16.6C46.7016 16.608 46.5296 16.648 46.4016 16.72C46.2816 16.784 46.1976 16.9 46.1496 17.068C46.1016 17.236 46.0776 17.476 46.0776 17.788V22.552C46.0776 22.768 46.0736 22.968 46.0656 23.152C46.0576 23.336 46.0456 23.48 46.0296 23.584C46.1656 23.576 46.3216 23.568 46.4976 23.56C46.6736 23.552 46.8136 23.548 46.9176 23.548V24.34H43.7256V23.68C43.9496 23.672 44.1216 23.636 44.2416 23.572C44.3616 23.5 44.4456 23.38 44.4936 23.212C44.5416 23.036 44.5656 22.796 44.5656 22.492V17.704C44.5656 17.504 44.5696 17.312 44.5776 17.128C44.5936 16.944 44.6056 16.8 44.6136 16.696C44.4776 16.704 44.3216 16.712 44.1456 16.72C43.9696 16.72 43.8296 16.724 43.7256 16.732V15.94H46.9176V16.6ZM55.395 18.592C55.395 18.144 55.339 17.776 55.227 17.488C55.115 17.192 54.947 16.972 54.723 16.828C54.507 16.684 54.231 16.616 53.895 16.624H53.163V22.552C53.163 22.768 53.159 22.968 53.151 23.152C53.143 23.336 53.131 23.48 53.115 23.584C53.267 23.576 53.439 23.568 53.631 23.56C53.831 23.552 53.983 23.548 54.087 23.548V24.34H50.811V23.68C51.035 23.672 51.207 23.632 51.327 23.56C51.447 23.488 51.531 23.368 51.579 23.2C51.627 23.032 51.651 22.796 51.651 22.492L51.663 16.636H50.883C50.411 16.644 50.051 16.804 49.803 17.116C49.555 17.428 49.431 17.92 49.431 18.592H48.759L48.819 15.94H56.007L56.079 18.592H55.395ZM62.0405 21.376C62.0405 21.032 61.9885 20.784 61.8845 20.632C61.7885 20.48 61.6445 20.388 61.4525 20.356C61.2685 20.324 61.0445 20.312 60.7805 20.32L60.2885 20.344V22.564C60.2885 22.78 60.2845 22.98 60.2765 23.164C60.2685 23.34 60.2565 23.48 60.2405 23.584L62.0765 23.572C62.3565 23.572 62.6125 23.52 62.8445 23.416C63.0765 23.304 63.2645 23.12 63.4085 22.864C63.5525 22.6 63.6245 22.244 63.6245 21.796H64.2845L64.2245 24.34H57.9365V23.68C58.1605 23.672 58.3325 23.636 58.4525 23.572C58.5725 23.5 58.6565 23.38 58.7045 23.212C58.7525 23.036 58.7765 22.796 58.7765 22.492V17.704C58.7765 17.504 58.7805 17.312 58.7885 17.128C58.8045 16.944 58.8165 16.8 58.8245 16.696C58.6885 16.704 58.5325 16.712 58.3565 16.72C58.1805 16.72 58.0405 16.724 57.9365 16.732V15.94H63.8525L63.9245 18.196H63.2645C63.2645 17.74 63.1885 17.4 63.0365 17.176C62.8925 16.944 62.7045 16.788 62.4725 16.708C62.2405 16.628 62.0005 16.592 61.7525 16.6L61.1285 16.612C60.9125 16.62 60.7445 16.656 60.6245 16.72C60.5045 16.784 60.4165 16.9 60.3605 17.068C60.3125 17.228 60.2885 17.468 60.2885 17.788V19.624L61.9685 19.636L61.9085 18.592H62.7005V21.376H62.0405ZM65.8011 24.34V23.656C66.0251 23.656 66.2051 23.592 66.3411 23.464C66.4771 23.336 66.5891 23.168 66.6771 22.96C66.7651 22.744 66.8571 22.504 66.9531 22.24L69.3411 15.724H69.9891L72.5931 22.36C72.6411 22.496 72.7051 22.688 72.7851 22.936C72.8651 23.184 72.9091 23.4 72.9171 23.584C73.0531 23.576 73.1851 23.568 73.3131 23.56C73.4411 23.552 73.5531 23.548 73.6491 23.548V24.34H70.5891V23.68C70.8371 23.68 71.0051 23.628 71.0931 23.524C71.1811 23.42 71.2171 23.284 71.2011 23.116C71.1931 22.948 71.1531 22.776 71.0811 22.6L70.7811 21.784L67.9971 21.832L67.7331 22.636C67.6851 22.772 67.6291 22.928 67.5651 23.104C67.5011 23.272 67.4371 23.424 67.3731 23.56C67.5171 23.552 67.6731 23.544 67.8411 23.536C68.0171 23.528 68.1571 23.524 68.2611 23.524V24.34H65.8011ZM68.2611 21.064H70.5171L69.8691 19.3C69.7731 19.028 69.6811 18.756 69.5931 18.484C69.5131 18.204 69.4451 17.948 69.3891 17.716H69.3651C69.3171 17.876 69.2571 18.084 69.1851 18.34C69.1211 18.596 69.0291 18.888 68.9091 19.216L68.2611 21.064ZM80.0646 18.58C80.0086 18.156 79.8926 17.788 79.7166 17.476C79.5406 17.156 79.3046 16.912 79.0086 16.744C78.7206 16.568 78.3726 16.48 77.9646 16.48C77.5726 16.48 77.2446 16.592 76.9806 16.816C76.7246 17.04 76.5966 17.316 76.5966 17.644C76.5966 17.916 76.6726 18.152 76.8246 18.352C76.9846 18.552 77.2126 18.736 77.5086 18.904C77.8046 19.064 78.1566 19.232 78.5646 19.408C78.8686 19.536 79.1766 19.68 79.4886 19.84C79.8006 19.992 80.0886 20.176 80.3526 20.392C80.6166 20.608 80.8286 20.86 80.9886 21.148C81.1566 21.428 81.2406 21.764 81.2406 22.156C81.2406 22.62 81.1166 23.032 80.8686 23.392C80.6286 23.752 80.2846 24.032 79.8366 24.232C79.3886 24.432 78.8606 24.532 78.2526 24.532C77.9166 24.532 77.5606 24.48 77.1846 24.376C76.8086 24.28 76.4646 24.132 76.1526 23.932L76.1886 24.448H75.3726L75.3486 21.724H76.0326C76.1206 22.404 76.3726 22.92 76.7886 23.272C77.2046 23.616 77.7046 23.788 78.2886 23.788C78.5846 23.788 78.8486 23.736 79.0806 23.632C79.3126 23.52 79.4926 23.372 79.6206 23.188C79.7566 22.996 79.8246 22.78 79.8246 22.54C79.8246 22.228 79.7286 21.972 79.5366 21.772C79.3446 21.572 79.1006 21.4 78.8046 21.256C78.5086 21.112 78.2006 20.972 77.8806 20.836C77.5206 20.684 77.1806 20.524 76.8606 20.356C76.5406 20.18 76.2566 19.984 76.0086 19.768C75.7686 19.544 75.5766 19.288 75.4326 19C75.2966 18.712 75.2286 18.372 75.2286 17.98C75.2286 17.748 75.2726 17.504 75.3606 17.248C75.4486 16.984 75.5926 16.74 75.7926 16.516C76.0006 16.292 76.2766 16.108 76.6206 15.964C76.9646 15.82 77.3926 15.748 77.9046 15.748C78.2246 15.748 78.5726 15.796 78.9486 15.892C79.3326 15.98 79.6686 16.128 79.9566 16.336L79.9086 15.832H80.7366V18.58H80.0646ZM87.4233 21.376C87.4233 21.032 87.3713 20.784 87.2673 20.632C87.1713 20.48 87.0273 20.388 86.8353 20.356C86.6513 20.324 86.4273 20.312 86.1633 20.32L85.6713 20.344V22.564C85.6713 22.78 85.6673 22.98 85.6593 23.164C85.6513 23.34 85.6393 23.48 85.6233 23.584L87.4593 23.572C87.7393 23.572 87.9953 23.52 88.2273 23.416C88.4593 23.304 88.6473 23.12 88.7913 22.864C88.9353 22.6 89.0073 22.244 89.0073 21.796H89.6673L89.6073 24.34H83.3193V23.68C83.5433 23.672 83.7153 23.636 83.8353 23.572C83.9553 23.5 84.0393 23.38 84.0873 23.212C84.1353 23.036 84.1593 22.796 84.1593 22.492V17.704C84.1593 17.504 84.1633 17.312 84.1713 17.128C84.1873 16.944 84.1993 16.8 84.2073 16.696C84.0713 16.704 83.9153 16.712 83.7393 16.72C83.5633 16.72 83.4233 16.724 83.3193 16.732V15.94H89.2353L89.3073 18.196H88.6473C88.6473 17.74 88.5713 17.4 88.4193 17.176C88.2753 16.944 88.0873 16.788 87.8553 16.708C87.6233 16.628 87.3833 16.592 87.1353 16.6L86.5113 16.612C86.2953 16.62 86.1273 16.656 86.0073 16.72C85.8873 16.784 85.7993 16.9 85.7433 17.068C85.6953 17.228 85.6713 17.468 85.6713 17.788V19.624L87.3513 19.636L87.2913 18.592H88.0833V21.376H87.4233Z" fill="#1A1A1A"/>
</svg>
